# xmcd
#
# Track frame offsets:
#	150
#	20284
#	35417
#	50188
#	70385
#	86371
#	102093
#	114071
#	130712
#	146648
#	159768
#	177794
#	193405
#	208264
#	226188
#	246227
#	262034
#	278226
#	294905
#	312653
#	331858
#
# Disc length: 4661 seconds
#
# Revision: 0
# Processed by: cddbd v1.5.2PL0 Copyright (c) Steve Scherf et al.
# Submitted via: EasyCDDAExtractor 16.0.9.1
#
DISCID=2e123315
DTITLE=Hott Urban Trakks Volume 3 Canada
DYEAR=2015
DGENRE=blues
TTITLE0=Macklemore and Ryan Lewis\n - Downtown\n
TTITLE1=Omarion ft. Kid Ink and French Montana\n - I'm Up\n
TTITLE2=Nicki Minaj ft. Lunchmoney Lewis\n - Trini Dem Girls\n
TTITLE3=Drake\n - Hotline Bling\n
TTITLE4=Post Malone\n - White Iverson\n
TTITLE5=Malachiae Warren\n - Thank Yo Momma\n
TTITLE6=Jamie XX ft. Young Thug and Popcaan\n - I Know There's Gonna Be (Good 
TTITLE6=Times]\n
TTITLE7=Kendrick Lamar\n - Alright\n
TTITLE8=R. Kelly\n - Backyard Party\n
TTITLE9=Nelly ft. Jeremih\n - The Fix\n
TTITLE10=Curren$y ft. August Alsina and Lil Wayne\n - Bottom Of The Bottle\n
TTITLE11=2 Chainz\n - Watch Out\n
TTITLE12=Miguel\n - Simple Things\n
TTITLE13=Tory Lanez\n - Say It\n
TTITLE14=Kirk Franklin\n - Wanna Be Happy\n
TTITLE15=Jeezy\n - God\n
TTITLE16=Tamar Braxton\n - Catfish\n
TTITLE17=August Alsina ft. Lil Wayne\n - Why I Do It\n
TTITLE18=Babyface\n - We've Got Love\n
TTITLE19=A$AP Rocky ft. SCHoolboy Q\n - Electric Body\n
TTITLE20=Casey Veggies ft. Ty Dolla $ign\n - Wonderful\n
EXTD=
EXTT0=
EXTT1=
EXTT2=
EXTT3=
EXTT4=
EXTT5=
EXTT6=
EXTT7=
EXTT8=
EXTT9=
EXTT10=
EXTT11=
EXTT12=
EXTT13=
EXTT14=
EXTT15=
EXTT16=
EXTT17=
EXTT18=
EXTT19=
EXTT20=
PLAYORDER=
